# xmcd
#
# Track frame offsets:
#	150
#	12382
#	22788
#	33512
#	47191
#	58266
#	70668
#	86300
#	97762
#	108696
#	125293
#	137390
#	149532
#	163067
#	175257
#
# Disc length: 2505 seconds
#
# Revision: 1
# Processed by: cddbd v1.5.2PL0 Copyright (c) Steve Scherf et al.
# Submitted via: audiograbber 1.83.01
#
DISCID=c309c70f
DTITLE=Various Artist - Lifetime Of Country Romance - Sweet Dreams - Disc 2
DYEAR=2006
DGENRE=Country
TTITLE0=Hank Williams - Your Cheatin' Heart
TTITLE1=The Everly Brothers - All I Have To Do Is Dream
TTITLE2=George Jones And Tammy Wynette - Near You
TTITLE3=She's Got You (Live) - She's Got You (Live)
TTITLE4=Loretta Lynn - Conway Twitty - Lead Me On
TTITLE5=Glen Campbell - By The Time I Get To Pheonix
TTITLE6=Don Williams - Till The Rivers All Run Dry
TTITLE7=Loretta Lynn - Love Is The Foundation
TTITLE8=Buck Owens - My Heart Skips A Beat
TTITLE9=Freddy Fender - Secret Love
TTITLE10=Wilma Burgess - Misty Blue
TTITLE11=Glen Campbell - Galveston
TTITLE12=Conway Twitty - You've Never Been This Far Before
TTITLE13=Jack Greene - All The Time
TTITLE14=Sonny James - Since I Met You, Baby
EXTD=YEAR: 2006
EXTT0=
EXTT1=
EXTT2=
EXTT3=
EXTT4=
EXTT5=
EXTT6=
EXTT7=
EXTT8=
EXTT9=
EXTT10=
EXTT11=
EXTT12=
EXTT13=
EXTT14=
PLAYORDER=
